<svg xmlns="http://www.w3.org/2000/svg" width="25" height="25" viewBox="0 0 25 25">
  <g fill="none" fill-rule="evenodd" transform="translate(1 1)">
    <path fill="#D9D9D9" fill-rule="nonzero" d="M3.59885807,19.1984918 C3.57009838,19.3073897 5.31969608,20.938561 7.23910634,21.841418 C9.40371708,22.859613 11.7761382,23.155549 11.9031028,23.155549 L19.9396777,19.8516621 C20.1792247,19.8516621 20.7111116,19.1490527 20.6405541,18.9201764 L19.9396777,17.9046167 C19.6228223,16.7493467 18.4501307,15.4496951 17.3336237,15.016115 L14.0411585,13.7375871 C13.8331882,13.6189024 13.7637195,13.3538763 13.8867596,13.1485192 C13.8867596,13.1485192 15.4764808,10.4978223 15.3425523,8.28745645 C15.2094948,6.08275261 13.7968206,4 11.4756098,4 C9.15461672,4 7.74194251,6.08253484 7.60866725,8.28745645 C7.47473868,10.4982578 9.05858014,13.149608 9.05858014,13.149608 C9.18140244,13.3551829 9.11171603,13.6204268 8.90374564,13.7391115 L5.61084495,15.0130662 C4.49390244,15.445122 3.3190331,16.7434669 3,17.8978659 L3.59885807,19.1984918 Z"/>
    <circle cx="11.5" cy="11.5" r="11.5" stroke="#D9D9D9"/>
  </g>
</svg>
